<svg id="Layer_1" enable-background="new 0 0 512 512" height="512" viewBox="0 0 512 512" width="512" xmlns="http://www.w3.org/2000/svg"><g><path d="m489.5 490h-467c-8.284 0-15-6.716-15-15 0-8.284 6.716-15 15-15h467c8.284 0 15 6.716 15 15 0 8.284-6.716 15-15 15z" fill="#7be492"/><path d="m489.5 460h-30c8.284 0 15 6.716 15 15s-6.716 15-15 15h30c8.284 0 15-6.716 15-15s-6.716-15-15-15z" fill="#45d987"/><path d="m70 59.5h80v116h-80z" fill="#d67b42"/><path d="m120 59.5h30v116h-30z" fill="#be652b"/><path d="m64 29.5h92v30h-92z" fill="#f75632"/><path d="m126 29.5h30v30h-30z" fill="#e33629"/><path d="m458 460h-404v-268.891l202-155.109 202 155.097z" fill="#f3f3f3"/><g><path d="m428 168.063v291.937h30v-268.903z" fill="#e4e4e4"/></g><path d="m84 417.5v-196.99l344-.01v197z" fill="#43809f"/><path d="m398 220.5h30v197h-30z" fill="#3a7190"/><path d="m491.433 198.985-226.602-173.986c-5.208-3.999-12.454-3.999-17.662.001l-226.602 174c-6.352 4.877-7.547 13.98-2.669 20.332 2.855 3.718 7.158 5.668 11.511 5.668 3.081 0 6.188-.979 8.82-3l217.771-167.219 217.771 167.206c6.352 4.877 15.455 3.683 20.332-2.67 4.877-6.352 3.681-15.455-2.67-20.332z" fill="#f75632"/><path d="m370 417.5h-228v-32c0-5.523 4.477-10 10-10h208c5.523 0 10 4.477 10 10z" fill="#e4e4e4"/><path d="m360 375.5h-30c5.523 0 10 4.477 10 10v32h30v-32c0-5.523-4.477-10-10-10z" fill="#d2d2d2"/><path d="m337 375.5h-162c-9.941 0-18-8.059-18-18v-14c0-9.941 8.059-18 18-18h162c9.941 0 18 8.059 18 18v14c0 9.941-8.059 18-18 18z" fill="#f3f3f3"/><path d="m337 325.5h-30c9.941 0 18 8.059 18 18v14c0 9.941-8.059 18-18 18h30c9.941 0 18-8.059 18-18v-14c0-9.941-8.059-18-18-18z" fill="#e4e4e4"/><path d="m311 375.5h-110v-13c0-30.376 24.624-55 55-55 30.376 0 55 24.624 55 55z" fill="#ffca28"/><path d="m256 307.5c-5.203 0-10.23.738-15 2.088 23.082 6.531 40 27.739 40 52.912v13h30v-13c0-30.376-24.624-55-55-55z" fill="#ffae08"/><circle cx="256" cy="148" fill="#ffca28" r="47"/><g><path d="m428 424.999c4.143 0 7.5-3.358 7.5-7.5v-197.003c0-1.989-.79-3.897-2.196-5.303-1.407-1.407-3.314-2.197-5.304-2.197l-344 .01c-4.143 0-7.5 3.358-7.5 7.5v35.49c0 4.142 3.357 7.5 7.5 7.5s7.5-3.358 7.5-7.5v-27.99l329-.01v182.003h-43v-24.5c0-9.574-7.731-17.368-17.277-17.489 1.458-3.208 2.277-6.765 2.277-10.511v-14c0-14.061-11.439-25.5-25.5-25.5h-37.169c-11.289-11.122-26.77-18-43.831-18s-32.542 6.879-43.831 18h-37.169c-14.061 0-25.5 11.44-25.5 25.5v14c0 3.747.819 7.304 2.277 10.511-9.546.121-17.277 7.915-17.277 17.489v24.5h-43v-122.028c0-4.142-3.357-7.5-7.5-7.5s-7.5 3.358-7.5 7.5v129.528c0 4.142 3.357 7.5 7.5 7.5zm-80.5-81.501v14c0 5.79-4.71 10.5-10.5 10.5h-18.5v-5.5c0-10.663-2.69-20.708-7.418-29.5h25.918c5.79-.001 10.5 4.71 10.5 10.5zm-91.5-28.501c26.191 0 47.5 21.309 47.5 47.501v5.5h-95v-5.5c0-26.192 21.309-47.501 47.5-47.501zm-91.5 28.501c0-5.79 4.71-10.5 10.5-10.5h25.918c-4.728 8.793-7.418 18.837-7.418 29.5v5.5h-18.5c-5.79 0-10.5-4.711-10.5-10.5zm-15 66.501v-24.5c0-1.378 1.121-2.5 2.5-2.5h208c1.379 0 2.5 1.122 2.5 2.5v24.5z"/><path d="m312.075 290.514c1.296 2.468 3.854 4.013 6.641 4.013h23.564c4.143 0 7.5-3.358 7.5-7.5s-3.357-7.5-7.5-7.5h-9.281l14.503-21.03c1.583-2.294 1.762-5.277.467-7.745-1.296-2.468-3.854-4.013-6.641-4.013h-22.018c-4.143 0-7.5 3.358-7.5 7.5s3.357 7.5 7.5 7.5h7.734l-14.503 21.03c-1.582 2.295-1.761 5.278-.466 7.745z"/><path d="m358.608 273.492c1.296 2.468 3.854 4.013 6.641 4.013h20.137c4.143 0 7.5-3.358 7.5-7.5s-3.357-7.5-7.5-7.5h-5.854l11.214-16.26c1.583-2.294 1.762-5.277.467-7.745-1.296-2.468-3.854-4.013-6.641-4.013h-18.814c-4.143 0-7.5 3.358-7.5 7.5s3.357 7.5 7.5 7.5h4.531l-11.214 16.26c-1.583 2.294-1.762 5.277-.467 7.745z"/><path d="m256 202.495c30.052 0 54.5-24.449 54.5-54.501s-24.448-54.5-54.5-54.5-54.5 24.449-54.5 54.501 24.448 54.5 54.5 54.5zm-38.657-46.381h31.157v30.658c-15.568-3.006-27.909-15.176-31.157-30.658zm46.157 30.658v-30.658h31.157c-3.248 15.482-15.589 27.652-31.157 30.658zm31.388-45.658h-31.388v-31.897c15.981 3.086 28.552 15.83 31.388 31.897zm-46.388-31.897v31.897h-31.388c2.836-16.067 15.407-28.811 31.388-31.897z"/><path d="m489.5 452.499h-24v-227.412l3.704 2.844c4.66 3.58 10.436 5.127 16.263 4.364 5.827-.765 11.007-3.754 14.586-8.416 7.387-9.622 5.569-23.46-4.053-30.848l-85.779-65.863c-3.286-2.523-7.992-1.903-10.517 1.381-2.522 3.285-1.903 7.994 1.382 10.516l85.779 65.863c3.062 2.351 3.64 6.754 1.289 9.816-1.139 1.483-2.786 2.434-4.641 2.677-1.856.246-3.692-.25-5.175-1.389l-217.771-167.206c-2.693-2.068-6.441-2.068-9.135 0l-217.771 167.221c-1.234.948-2.705 1.449-4.253 1.449-2.199 0-4.227-.998-5.563-2.738-1.139-1.483-1.632-3.32-1.389-5.174s1.194-3.502 2.677-4.64l226.603-174.003c2.512-1.928 6.017-1.928 8.526 0l115.446 88.641c3.287 2.524 7.994 1.903 10.517-1.381 2.522-3.285 1.903-7.994-1.382-10.516l-115.445-88.642c-7.889-6.057-18.908-6.059-26.797 0l-85.101 65.348v-17.548c3.424-.695 6-3.721 6-7.349v-30c0-4.142-3.357-7.5-7.5-7.5h-92c-4.143 0-7.5 3.358-7.5 7.5v30c0 3.628 2.576 6.655 6 7.349v90.496l-46.501 35.707c-4.661 3.579-7.649 8.759-8.414 14.586-.766 5.827.785 11.602 4.364 16.263 4.197 5.466 10.561 8.602 17.459 8.602 4.881 0 9.51-1.574 13.388-4.551l3.704-2.844v227.398h-24c-12.406-.001-22.5 10.093-22.5 22.5s10.094 22.5 22.5 22.5h467c12.406 0 22.5-10.093 22.5-22.5s-10.094-22.501-22.5-22.501zm-347-369.505h-65v-16h65zm-65 15h62.285l-26.046 20h-36.239zm-6-61.001h77v15h-77zm6 96.001h16.704l-16.704 12.827zm412 349.506h-467c-4.136 0-7.5-3.364-7.5-7.5s3.364-7.5 7.5-7.5h299.885c4.143 0 7.5-3.358 7.5-7.5s-3.357-7.5-7.5-7.5h-260.885v-238.917l194.5-149.352 194.5 149.339v238.929h-95.5c-4.143 0-7.5 3.358-7.5 7.5s3.357 7.5 7.5 7.5h134.5c4.136 0 7.5 3.364 7.5 7.5s-3.364 7.501-7.5 7.501z"/></g></g></svg>